# xmcd CD database file
#
# Track frame offsets:
#	150
#	19331
#	39237
#	62196
#	102512
#	128370
#	147230
#	168999
#	185238
#	206955
#	222233
#	241506
#	264772
#	280301
#	296963
#	313471
#	330267
#
# Disc length: 4725 seconds
#
# Revision: 1
# Processed by: cddbd v1.5.1PL0 Copyright (c) Steve Scherf et al.
# Submitted via: CDex 1.60beta1
#
DISCID=07127311
DTITLE=Varioust - Skladanka
DYEAR=1900
DGENRE=New Age
TTITLE0=Berlin Take My Breath Away
TTITLE1=Big Cyc Facet To Swinia
TTITLE2=Foreigner I Want To Know What Love Is
TTITLE3=Guns N Roses November Rain
TTITLE4=Guns N Roses You Could Be Mine
TTITLE5=Kombi Sen Sie Spelni
TTITLE6=Lady Pank Zostawcie Titanica
TTITLE7=Maryla Rodowicz Latwopalni
TTITLE8=Papa Dance Nietykalni
TTITLE9=Reo Speedwagon Keep On Loving You
TTITLE10=Universe Daj Mi Wreszcie Swiety Spokoj
TTITLE11=Universe W Perly Zmienic Deszcz
TTITLE12=Varius Manx Pocaluj Noc
TTITLE13=Vir Nie Wiem
TTITLE14=Wilki Baska
TTITLE15=Wilki Bohema
TTITLE16=Wilki Slonce Pokonal Cien
EXTD=
EXTT0=
EXTT1=
EXTT2=
EXTT3=
EXTT4=
EXTT5=
EXTT6=
EXTT7=
EXTT8=
EXTT9=
EXTT10=
EXTT11=
EXTT12=
EXTT13=
EXTT14=
EXTT15=
EXTT16=
PLAYORDER=
